<?xml version="1.0" encoding="UTF-8"?>
<svg xmlns="http://www.w3.org/2000/svg" xmlns:xlink="http://www.w3.org/1999/xlink" viewBox="0 0 450 450" width="450px" height="450px">
<g id="surface47627661">
<rect x="0" y="0" width="450" height="450" style="fill:rgb(33.333334%,78.039217%,46.27451%);fill-opacity:1;stroke:none;"/>
<path style=" stroke:none;fill-rule:nonzero;fill:rgb(21.960784%,55.686277%,23.529412%);fill-opacity:1;" d="M 161.289062 179.269531 L 115.285156 204.722656 C 113.558594 205.667969 112.5 207.429688 112.5 209.335938 L 112.5 260.269531 C 112.5 262.171875 113.558594 263.925781 115.285156 264.882812 L 161.296875 290.351562 C 163.011719 291.300781 165.140625 291.300781 166.855469 290.351562 L 212.859375 264.882812 C 214.566406 263.925781 215.625 262.171875 215.625 260.269531 L 215.625 209.335938 C 215.625 207.429688 214.566406 205.679688 212.839844 204.722656 L 166.847656 179.269531 C 165.984375 178.789062 165.019531 178.554688 164.0625 178.554688 C 163.097656 178.554688 162.140625 178.789062 161.277344 179.269531 M 397.976562 225.121094 L 390.308594 229.359375 C 390.019531 229.519531 389.851562 229.808594 389.851562 230.128906 L 389.851562 238.621094 C 389.851562 238.941406 390.027344 239.230469 390.308594 239.390625 L 397.976562 243.636719 C 398.269531 243.796875 398.617188 243.796875 398.90625 243.636719 L 406.574219 239.390625 C 406.855469 239.230469 407.035156 238.941406 407.035156 238.621094 L 407.035156 230.128906 C 407.035156 229.808594 406.855469 229.519531 406.566406 229.359375 L 398.898438 225.121094 C 398.757812 225.039062 398.597656 225 398.4375 225 C 398.277344 225 398.117188 225.039062 397.976562 225.121094 "/>
<path style=" stroke:none;fill-rule:nonzero;fill:rgb(21.568628%,27.843139%,30.980393%);fill-opacity:1;" d="M 335.164062 125.289062 L 312.769531 112.789062 C 312.066406 112.398438 311.203125 112.40625 310.507812 112.820312 C 309.816406 113.230469 309.382812 113.972656 309.382812 114.777344 L 309.375 190.265625 L 288.722656 178.835938 C 287.859375 178.359375 286.894531 178.125 285.9375 178.125 C 284.980469 178.125 284.015625 178.359375 283.152344 178.835938 L 283.164062 178.835938 L 237.160156 204.289062 C 235.433594 205.238281 234.375 207 234.375 208.894531 L 234.375 259.828125 C 234.375 261.730469 235.433594 263.484375 237.160156 264.441406 L 283.171875 289.914062 C 284.886719 290.859375 287.015625 290.859375 288.730469 289.914062 L 334.734375 264.441406 C 336.441406 263.492188 337.5 261.730469 337.5 259.828125 L 337.5 129.261719 C 337.5 127.613281 336.601562 126.09375 335.164062 125.289062 Z M 308.117188 248.042969 L 287.210938 259.621094 C 286.433594 260.054688 285.46875 260.054688 284.691406 259.621094 L 263.773438 248.042969 C 262.976562 247.613281 262.5 246.804688 262.5 245.945312 L 262.5 222.789062 C 262.5 221.925781 262.976562 221.128906 263.765625 220.6875 L 284.679688 209.117188 L 284.671875 209.117188 C 285.066406 208.902344 285.496094 208.800781 285.9375 208.800781 C 286.378906 208.800781 286.808594 208.914062 287.203125 209.117188 L 308.109375 220.6875 C 308.898438 221.128906 309.375 221.933594 309.375 222.796875 L 309.375 245.953125 C 309.375 246.804688 308.898438 247.613281 308.117188 248.042969 Z M 308.117188 248.042969 "/>
<path style=" stroke:none;fill-rule:nonzero;fill:rgb(18.039216%,49.019608%,19.607843%);fill-opacity:1;" d="M 161.289062 179.269531 L 112.5 260.269531 C 112.5 262.171875 113.558594 263.925781 115.285156 264.882812 L 161.296875 290.351562 C 163.011719 291.300781 165.140625 291.300781 166.855469 290.351562 L 215.625 209.335938 C 215.625 207.429688 214.566406 205.679688 212.839844 204.722656 L 166.847656 179.269531 C 165.984375 178.789062 165.019531 178.554688 164.0625 178.554688 C 163.097656 178.554688 162.140625 178.789062 161.277344 179.269531 "/>
<path style=" stroke:none;fill-rule:nonzero;fill:rgb(29.803923%,68.627453%,31.37255%);fill-opacity:1;" d="M 161.289062 179.269531 L 115.285156 204.722656 C 113.558594 205.667969 112.5 207.429688 112.5 209.335938 L 161.289062 290.351562 C 163.003906 291.300781 165.132812 291.300781 166.847656 290.351562 L 212.851562 264.882812 C 214.566406 263.925781 215.625 262.171875 215.625 260.269531 L 166.847656 179.269531 C 165.984375 178.789062 165.019531 178.554688 164.0625 178.554688 C 163.097656 178.554688 162.140625 178.789062 161.277344 179.269531 "/>
<path style=" stroke:none;fill-rule:nonzero;fill:rgb(21.568628%,27.843139%,30.980393%);fill-opacity:1;" d="M 447.214844 204.289062 L 401.222656 178.835938 C 400.359375 178.359375 399.394531 178.125 398.4375 178.125 C 397.480469 178.125 396.515625 178.359375 395.652344 178.835938 L 395.664062 178.835938 L 349.660156 204.289062 C 347.945312 205.238281 346.875 207.039062 346.875 209.007812 L 346.875 259.734375 C 346.875 261.695312 347.945312 263.503906 349.660156 264.449219 L 395.671875 289.921875 C 397.398438 290.878906 399.507812 290.878906 401.230469 289.921875 L 422.445312 278.175781 C 424.386719 277.097656 424.378906 274.3125 422.429688 273.242188 L 376.265625 248.054688 C 375.488281 247.613281 375 246.796875 375 245.914062 L 375 222.796875 C 375 221.933594 375.46875 221.136719 376.21875 220.726562 L 397.171875 209.136719 L 397.164062 209.136719 C 397.554688 208.921875 397.988281 208.820312 398.429688 208.820312 C 398.867188 208.820312 399.300781 208.929688 399.695312 209.136719 L 420.648438 220.734375 C 421.398438 221.148438 421.867188 221.945312 421.867188 222.804688 L 421.867188 241.667969 C 421.867188 242.476562 422.296875 243.226562 423 243.628906 C 423.703125 244.023438 424.566406 244.023438 425.269531 243.617188 L 447.75 230.558594 C 449.136719 229.753906 450 228.261719 450 226.648438 L 450 209.023438 C 450 207.046875 448.929688 205.238281 447.214844 204.289062 Z M 100.339844 204.289062 L 54.347656 178.835938 C 53.484375 178.359375 52.519531 178.125 51.5625 178.125 C 50.605469 178.125 49.640625 178.359375 48.777344 178.835938 L 48.789062 178.835938 L 2.785156 204.289062 C 1.070312 205.238281 0 207.039062 0 209.007812 L 0 278.992188 C 0 279.796875 0.429688 280.546875 1.132812 280.949219 C 1.835938 281.34375 2.699219 281.34375 3.402344 280.941406 L 25.882812 267.882812 C 27.273438 267.074219 28.125 265.585938 28.125 263.972656 L 28.125 222.789062 C 28.125 221.925781 28.59375 221.128906 29.34375 220.714844 L 50.296875 209.128906 C 50.691406 208.914062 51.121094 208.808594 51.5625 208.808594 C 52.003906 208.808594 52.433594 208.921875 52.828125 209.128906 L 73.78125 220.726562 C 74.53125 221.136719 75 221.933594 75 222.796875 L 75 263.980469 C 75 265.59375 75.851562 267.085938 77.25 267.890625 L 99.730469 280.949219 C 100.433594 281.351562 101.296875 281.351562 102 280.960938 C 102.695312 280.546875 103.125 279.796875 103.125 278.992188 L 103.125 209.015625 C 103.125 207.046875 102.054688 205.238281 100.339844 204.289062 Z M 100.339844 204.289062 "/>
</g>
</svg>
